<svg xmlns="http://www.w3.org/2000/svg" width="24" height="24" viewBox="0 0 24 24">
    <path fill="#E1306C" d="M12 2.163c3.207 0 3.59.012 4.847.07 1.265.058 2.193.274 2.695.572a5.407 5.407 0 0 1 2.036 2.036c.298.502.514 1.43.572 2.695.058 1.257.07 1.64.07 4.847s-.012 3.59-.07 4.847c-.058 1.265-.274 2.193-.572 2.695a5.407 5.407 0 0 1-2.036 2.036c-.502.298-1.43.514-2.695.572-1.257.058-1.64.07-4.847.07s-3.59-.012-4.847-.07c-1.265-.058-2.193-.274-2.695-.572a5.407 5.407 0 0 1-2.036-2.036c-.298-.502-.514-1.43-.572-2.695C2.175 15.023 2.163 14.34 2.163 12s.012-3.59.07-4.847c.058-1.265.274-2.193.572-2.695a5.407 5.407 0 0 1 2.036-2.036c.502-.298 1.43-.514 2.695-.572C8.41 2.175 8.792 2.163 12 2.163zm0-2.163C8.741 0 8.366.012 7.057.072 5.775.134 4.84.417 4.072.815 3.28 1.221 2.641 1.86 2.236 2.652 1.837 3.422 1.554 4.63 1.56 6.434.062 9.226.063 9.608.063 12s0 2.774.497 5.566c.405 1.392 1.044 2.006 1.776 2.491.772.517 1.66.697 2.47.695 1.364 0 2.626 0 3.963.002 1.339.003 2.677 0 4.047-.007 1.153-.005 2.378-.114 3.479-.381 1.463-.238 2.438-1.047 3.286-1.551.622-.41 1.172-.907 1.475-1.387.308-.485.443-.919.443-1.441 0-.485 0-1.78 0-2.792s0-2.32-.001-2.79c0-.521-.135-.956-.444-1.441-.303-.48-.854-.977-1.475-1.387-.848-.504-1.823-1.313-3.286-1.551-1.101-.267-2.326-.376-3.479-.381-1.37-.002-2.63-.005-3.963-.002-1.309.002-2.697.193-3.469.687-.814.61-1.442 1.211-1.849 1.916-.361.063-.497-.138-.497-.492 0-.225 0-.461 0-.688 0-.354.135-.593.495-.693 1.172-.393 2.204-.763 3.221-1.09.294-.086.569-.157.818-.175.318-.019.578.065.758.207.214.169.231.449.095.719-.247.42-1.081 1.057-2.086 1.057-.85 0-1.612.017-2.321.184-.262.051-.4.026-.584-.137-.128-.101-.13-.278-.029-.447.28-.416.676-.612 1.06-.665.794-.116 1.513-.147 2.184-.147.365 0 .732.002 1.105.008 1.98.046 3.826.218 5.217.487.33.065.68.143.967.248.676.241 1.185.575 1.475.991.388.73.494 1.366.334 1.974-.025.065-.07.083-.093.083-.057 0-.174-.055-.37-.15-1.036-.546-2.514-1.24-4.493-1.298-.157-.007-.308.023-.449.083-.007.004-.017.004-.027.004-1.168 0-2.022.161-2.706.619-.057.052-.075.098-.097.14-.025.047-.065.116-.065.254v.025c.048 1.323 1.447 2.251 2.676 2.251 1.058 0 2.24-.538 2.769-1.287.146-.235.096-.56-.089-.77-.379-.452-1.036-.827-1.848-.858-.483-.018-.898.15-1.246.271-.329.11-.653.219-.979.218-.25 0-.513-.034-.788-.065C9.917 12.046 11.069 12 12 12s2.083.046 3.093.151c.257.032.516.066.765.066.36 0 .718-.073 1.06-.205.325-.13.563-.308.64-.493.072-.184-.031-.354-.234-.552-.306-.239-.739-.418-1.164-.603-.384-.173-.671-.348-.96-.551-.147-.116-.321-.243-.507-.333.15.303.303.606.441.916.048.118.075.247.075.377 0 .28-.16.522-.392.685-.235.159-.56.243-.883.243-.182 0-.364-.016-.538-.045-.546-.078-1.046-.305-1.33-.613-.253-.272-.506-.574-.753-.869-.156-.206-.333-.443-.53-.662.224-.058.478-.101.767-.101.464 0 .942.087 1.385.332.64.367.836.765.847 1.042.022.267-.146.577-.662.583-.191.002-.357.023-.512.06-.103.024-.217.057-.329.085-1.551.213-2.302 1.135-2.628 1.757C7.005 19.488 7.4 21 9.527 21H12c2.068 0 4.085-.4 5.579-1.074 1.279-.588 1.944-1.24 2.546-2.054.21-.3.439-.578.657-.861C23.343 14.773 24 13.483 24 12V12s0-4.585 0-9.83C23.999 2.522 23.627 2.166 23.001 2 22.726 2 .948 2.163.002 2.016.164 2.507.573 2.785 1.55 2.744c.962-.046 1.97.126 2.956.472.155.046.303.093.455.142.094.024.186.052.272.085-.017-.004-.037-.008-.057-.012-.17-.048-.346-.063-.523-.093-2.215-.372-3.994-1.793-4.87-3.82C2.453 2.638 4.087 0 6.87 0c1.83 0 3.327 1.295 3.958 2.152.06.1.086.221.064.34-.02.123-.052.235-.092.332C13.016 1.438 14.557 1 16.005 1c2.478 0 4.45 1.445 5.203 3.547.383 1.173.27 2.454-.13 3.633-.158.387-.422.735-.79 1.056a5.473 5.473 0 0 1-1.172 1.087c-.193.111-.391.207-.575.287-.36.136-.72.215-1.078.215-1.027 0-1.81-.3-2.276-.686-.17-.165-.357-.319-.588-.478.012.082.015.162.015.243 0 .694-.174 1.3-.496 1.805C15.537 11.698 12 12 12 12s.618-2.303 1.229-2.803C12.293 8.106 12 8 12 8s0 0 0 0c-.001.009.022.016.017.023-.277-.23-.473-.31-.695-.388.138-.03.321-.044.54-.044h.009c.672 0 1.244.258 1.607.614.153.174.292.36.422.552.27.378.428.81.597 1.187.219.44.456.917.704 1.309C20 11.007 22 14 22 14c0-2.17 1.172-3.985 2.5-5.07C23.583 9.16 24 8.284 24 7c0-3.314-2.686-6-6-6-1.213 0-2.362.373-3.334 1.015A8.063 8.063 0 0 0 12 0c-4.418 0-8 3.582-8 8s3.582 8 8 8c1.179 0 2.29-.28 3.307-.775A3.946 3.946 0 0 1 12 12c-2.211 0-4-1.789-4-4s1.789-4 4-4 4 1.789 4 4c0 2.211-1.789 4-4 4z"/>
</svg>
