<svg xmlns="http://www.w3.org/2000/svg" width="24" height="24" viewBox="0 0 24 24">
    <path fill="#0077b5" d="M23.994 24H1.998A2.001 2.001 0 0 1 0 22V2A2.001 2.001 0 0 1 1.998 0h21.996A2.001 2.001 0 0 1 24 2v20a2.001 2.001 0 0 1-1.006 1.732A2.001 2.001 0 0 1 23.994 24zm-15.35-11.5h-2.5v11.5h2.5v-11.5zm-1.25-8.017c-.966 0-1.75.785-1.75 1.75s.784 1.75 1.75 1.75 1.75-.785 1.75-1.75-.784-1.75-1.75-1.75zm13.602 19.517h-2.5v-5.951c0-1.419-.026-3.246-1.972-3.246-1.973 0-2.277 1.445-2.277 2.939v6.258h-2.5v-11.5h2.4v1.574h.035c.335-.634 1.153-1.306 2.366-1.306 2.528 0 2.997 1.658 2.997 3.812v7.42z"/>
</svg>
