<svg xmlns="http://www.w3.org/2000/svg" width="24" height="24" viewBox="0 0 24 24">
    <path fill="#1DA1F2" d="M23.954 4.569c-.885.392-1.83.656-2.825.775a4.933 4.933 0 0 0 2.163-2.723c-.95.559-2.005.964-3.127 1.184-.896-.956-2.17-1.55-3.594-1.55-2.726 0-4.936 2.209-4.936 4.937 0 .387.044.765.127 1.126-4.103-.205-7.73-2.168-10.155-5.144-.427.733-.666 1.582-.666 2.488 0 1.715.871 3.225 2.188 4.115-.806-.025-1.564-.247-2.229-.616v.061c0 2.398 1.698 4.4 3.95 4.84-.414.113-.848.173-1.296.173-.316 0-.623-.031-.922-.086.623 1.943 2.432 3.356 4.569 3.395-1.674 1.312-3.787 2.095-6.07 2.095-.394 0-.779-.023-1.165-.067 2.154 1.376 4.694 2.177 7.428 2.177 8.908 0 13.774-7.387 13.774-13.775 0-.209 0-.419-.014-.628.943-.676 1.759-1.52 2.403-2.478l-.047-.02z"/>
</svg>
